<svg width="72" height="49" viewBox="0 0 72 49" fill="none" xmlns="http://www.w3.org/2000/svg">
<rect width="10.4361" height="17.4839" transform="matrix(1 0 -0.777283 0.629151 37.503 37)" fill="#B53625"/>
<rect width="10.4361" height="17.4839" transform="matrix(1 0 -0.777283 0.629151 13.5899 37)" fill="#B53625"/>
<rect width="10.4361" height="17.4839" transform="matrix(1 0 -0.777283 0.629151 61.3569 37)" fill="#B53625"/>
<circle cx="35.2195" cy="5.18182" r="4.68182" fill="#B53625" stroke="#FFCEA8"/>
<path d="M34.3558 12.0909L31.7649 11.2273L25.7195 16.4091L22.2649 23.3182L25.7195 25.0455L28.3104 19.8636L31.7649 16.4091L30.9013 24.1818L30.0377 29.3636L24.8558 35.4091L17.9467 39.7273L19.674 44.0455L27.4467 38.8636L34.3558 31.9545L38.4467 38.8636L41.2649 47.5L45.5831 45.7727L41.9467 34.5L36.9467 24.1818L37.8104 18.1364L42.1286 21.5909L48.174 19.8636L47.3104 17.2727L42.1286 18.1364L37.8104 11.2273L34.3558 12.0909Z" fill="#B53625" stroke="#FFCEA8"/>
</svg>
