<svg width="40" height="31" viewBox="0 0 40 31" fill="none" xmlns="http://www.w3.org/2000/svg">
<rect x="0.930244" y="0.997564" width="23" height="29" rx="2" transform="matrix(1 0 -0.0697565 0.997564 2.23194 0.00242999)" stroke="#B53625" stroke-width="2"/>
<circle cx="3" cy="3" r="2.5" transform="matrix(1 0 -0.052336 0.99863 16.314 13)" fill="#B53625" stroke="#B53625"/>
<path d="M28.4045 14.0297C27.8522 14.0297 27.2962 14.4641 27.1626 15C27.029 15.5359 27.3684 15.9703 27.9207 15.9703L28.4045 14.0297ZM38.6986 15.6861C39.1836 15.3072 39.3368 14.6928 39.0408 14.3139L34.2164 8.13897C33.9203 7.76005 33.2872 7.76005 32.8022 8.13897C32.3172 8.5179 32.164 9.13225 32.46 9.51118L36.7484 15L29.723 20.4888C29.238 20.8677 29.0848 21.4821 29.3809 21.861C29.6769 22.24 30.3101 22.24 30.7951 21.861L38.6986 15.6861ZM27.9207 15.9703H37.9207L38.4045 14.0297H28.4045L27.9207 15.9703Z" fill="#B53625"/>
</svg>
