<svg width="241" height="145" viewBox="0 0 241 145" fill="none" xmlns="http://www.w3.org/2000/svg">
<path opacity="0.15" d="M75.9025 142.019C60.544 141.806 47.2053 138.74 35.8863 132.823C24.569 126.785 15.8639 118.444 9.77103 107.798C3.79815 97.1541 0.909952 84.7528 1.10644 70.5942C1.30293 56.4355 4.53414 44.1192 10.8001 33.6451C17.186 23.1727 26.1184 15.1359 37.5972 9.53464C49.0777 3.81339 62.4972 1.05934 77.8558 1.27248C93.0943 1.48395 106.312 4.60767 117.51 10.6436C128.829 16.5613 137.534 24.8429 143.627 35.4884C149.72 46.134 152.668 58.5361 152.472 72.6947C152.275 86.8534 148.984 99.1689 142.598 109.641C136.212 120.114 127.279 128.211 115.799 133.932C104.44 139.535 91.1411 142.23 75.9025 142.019ZM76.3222 111.782C88.441 111.95 97.9084 108.601 104.724 101.735C111.542 94.7489 115.039 84.8965 115.215 72.1777C115.394 59.339 112.171 49.3933 105.549 42.3407C98.9258 35.2881 89.555 31.6777 77.4361 31.5096C65.3173 31.3414 55.7899 34.6895 48.854 41.5539C41.9181 48.4183 38.361 58.2699 38.1829 71.1087C38.0064 83.8275 41.2887 93.774 48.0298 100.948C54.7725 108.002 64.2033 111.614 76.3222 111.782ZM240.502 6.40987L238.629 141.397L201.732 140.885L203.426 18.8566L220.482 35.1148L162.205 44.5671L162.604 15.7699L213.144 6.03022L240.502 6.40987Z" fill="#FFCEA8"/>
</svg>
