<svg width="304" height="146" viewBox="0 0 304 146" fill="none" xmlns="http://www.w3.org/2000/svg">
<path opacity="0.15" d="M75.9025 142.019C60.544 141.806 47.2053 138.74 35.8863 132.823C24.569 126.785 15.8639 118.444 9.77103 107.798C3.79815 97.1541 0.909952 84.7528 1.10644 70.5942C1.30293 56.4355 4.53414 44.1192 10.8001 33.6451C17.186 23.1727 26.1184 15.1359 37.5972 9.53464C49.0777 3.81339 62.4972 1.05934 77.8558 1.27248C93.0943 1.48395 106.312 4.60767 117.51 10.6436C128.829 16.5613 137.534 24.8429 143.627 35.4884C149.72 46.134 152.668 58.5361 152.472 72.6947C152.275 86.8534 148.984 99.1689 142.598 109.641C136.212 120.114 127.279 128.211 115.799 133.932C104.44 139.535 91.1411 142.23 75.9025 142.019ZM76.3222 111.782C88.441 111.95 97.9084 108.601 104.724 101.735C111.542 94.7489 115.039 84.8965 115.215 72.1777C115.394 59.339 112.171 49.3933 105.549 42.3407C98.9258 35.2881 89.555 31.6777 77.4361 31.5096C65.3173 31.3414 55.7899 34.6895 48.854 41.5539C41.9181 48.4183 38.361 58.2699 38.1829 71.1087C38.0064 83.8275 41.2887 93.774 48.0298 100.948C54.7725 108.002 64.2033 111.614 76.3222 111.782ZM166.378 53.9859C167.244 43.4369 170.85 34.3661 177.196 26.7734C183.544 19.0607 191.906 13.2362 202.281 9.2998C212.778 5.24507 224.566 3.30846 237.645 3.48996C250.124 3.66313 260.956 5.73364 270.142 9.70149C279.45 13.551 286.637 18.8713 291.703 25.6622C296.769 32.4532 299.241 40.2882 299.117 49.1674C299.022 56.0067 297.073 62.4003 293.271 68.3481C289.469 74.1759 283.569 79.9146 275.57 85.5641C267.572 91.0937 257.111 96.8891 244.186 102.95L206.852 120.974L205.545 111.415L302.015 112.754L301.606 142.271L168.058 140.418L168.418 114.5L226.825 82.7274C235.895 77.6928 242.915 73.4698 247.882 70.0584C252.972 66.5287 256.557 63.2781 258.639 60.3067C260.84 57.337 261.964 54.1723 262.011 50.8126C262.063 47.093 261.087 43.8991 259.084 41.2311C257.202 38.4447 254.292 36.2441 250.354 34.6293C246.416 33.0145 241.568 32.1671 235.808 32.0872C228.609 31.9873 222.714 32.9856 218.125 35.0821C213.537 37.0587 210.079 39.7709 207.751 43.219C205.425 46.547 203.992 50.3075 203.454 54.5004L166.378 53.9859Z" fill="#FFCEA8"/>
</svg>
