<svg width="305" height="146" viewBox="0 0 305 146" fill="none" xmlns="http://www.w3.org/2000/svg">
<path opacity="0.15" d="M75.9025 142.019C60.544 141.806 47.2053 138.74 35.8863 132.823C24.569 126.785 15.8639 118.444 9.77103 107.798C3.79815 97.1541 0.909952 84.7528 1.10644 70.5942C1.30293 56.4355 4.53414 44.1192 10.8001 33.6451C17.186 23.1727 26.1184 15.1359 37.5972 9.53464C49.0777 3.81339 62.4972 1.05934 77.8558 1.27248C93.0943 1.48395 106.312 4.60767 117.51 10.6436C128.829 16.5613 137.534 24.8429 143.627 35.4884C149.72 46.134 152.668 58.5361 152.472 72.6947C152.275 86.8534 148.984 99.1689 142.598 109.641C136.212 120.114 127.279 128.211 115.799 133.932C104.44 139.535 91.1411 142.23 75.9025 142.019ZM76.3222 111.782C88.441 111.95 97.9084 108.601 104.724 101.735C111.542 94.7489 115.039 84.8965 115.215 72.1777C115.394 59.339 112.171 49.3933 105.549 42.3407C98.9258 35.2881 89.555 31.6777 77.4361 31.5096C65.3173 31.3414 55.7899 34.6895 48.854 41.5539C41.9181 48.4183 38.361 58.2699 38.1829 71.1087C38.0064 83.8275 41.2887 93.774 48.0298 100.948C54.7725 108.002 64.2033 111.614 76.3222 111.782ZM168.787 48.9789C169.626 40.4697 172.793 32.7729 178.289 25.8885C183.786 18.8841 191.664 13.3529 201.921 9.29481C212.179 5.23675 224.626 3.30929 239.265 3.51244C251.744 3.68561 262.581 5.39616 271.777 8.64408C281.093 11.8937 288.231 16.3731 293.193 22.0825C298.274 27.7936 300.761 34.4888 300.655 42.168C300.571 48.1674 298.635 53.6611 294.845 58.649C291.176 63.6386 285.361 67.5782 277.4 70.4681C269.56 73.2395 259.342 74.4779 246.745 74.183L246.798 70.4034C258.563 70.0866 268.63 71.0664 277 73.3428C285.369 75.6191 291.739 79.2479 296.11 84.229C300.602 89.2118 302.795 95.4828 302.69 103.042C302.577 111.201 299.836 118.424 294.469 124.71C289.101 130.996 281.353 135.869 271.224 139.329C261.215 142.79 248.951 144.42 234.432 144.219C220.393 144.024 208.181 141.934 197.796 137.95C187.41 133.965 179.326 128.393 173.545 121.232C167.886 113.953 164.943 105.511 164.716 95.9069L201.792 96.4214C202.669 102.434 205.724 107.097 210.959 110.41C216.314 113.725 224.27 115.455 234.829 115.602C244.428 115.735 251.768 114.397 256.847 111.587C262.047 108.779 264.682 104.795 264.754 99.6354C264.795 96.6357 263.99 94.1043 262.339 92.0411C260.807 89.9797 258.008 88.4407 253.942 87.4242C249.877 86.2877 244.186 85.6686 236.866 85.5671L213.648 85.2449L213.998 60.0473L237.216 60.3695C246.695 60.501 253.312 59.3327 257.066 56.8646C260.941 54.3981 262.907 51.0651 262.966 46.8655C263.029 42.3059 260.858 38.7355 256.454 36.1541C252.169 33.5744 245.647 32.2238 236.888 32.1022C227.529 31.9723 220.308 33.4323 215.225 36.482C210.142 39.5318 207.082 43.8697 206.044 49.4959L168.787 48.9789Z" fill="#FFCEA8"/>
</svg>
